<svg width="150" height="136" viewBox="0 0 150 136" fill="none" xmlns="http://www.w3.org/2000/svg">
<circle opacity="0.1" cx="82.0039" cy="67.8459" r="67.5" fill="url(#paint0_linear)"/>
<path fill-rule="evenodd" clip-rule="evenodd" d="M76.927 66.8472C65.1474 66.8472 55.5982 75.2258 55.5982 85.5615V85.6092C55.5982 95.9448 65.1474 104.324 76.927 104.324H108.381C109.556 104.324 110.708 104.24 111.832 104.08L117.926 109.244C118.091 109.385 118.313 109.463 118.543 109.463C119.034 109.463 119.432 109.114 119.432 108.683L119.432 101.619C125.593 98.3373 129.709 92.395 129.709 85.6092V85.5615C129.709 75.2258 120.16 66.8472 108.381 66.8472H76.927Z" fill="#1D4885"/>
<path d="M82.1006 22.0109H37.1895C20.3615 22.0109 6.71973 33.9804 6.71973 48.7456C6.71973 63.5108 20.3615 75.4803 37.1895 75.4803H82.1006C98.9286 75.4803 112.57 63.5108 112.57 48.7456C112.57 33.9804 98.9286 22.0109 82.1006 22.0109Z" fill="url(#paint1_linear)"/>
<path fill-rule="evenodd" clip-rule="evenodd" d="M21.3989 67.7036V81.6995C21.3989 82.3147 21.9673 82.8134 22.6685 82.8134C22.9974 82.8134 23.3134 82.7015 23.55 82.5011L35.2717 72.5775L21.3989 67.7036Z" fill="url(#paint2_linear)"/>
<path d="M39.2521 52.0874C41.9691 52.0874 44.1717 50.1549 44.1717 47.7709C44.1717 45.3869 41.9691 43.4543 39.2521 43.4543C36.5351 43.4543 34.3325 45.3869 34.3325 47.7709C34.3325 50.1549 36.5351 52.0874 39.2521 52.0874Z" fill="white"/>
<path d="M59.4069 52.0874C62.1239 52.0874 64.3265 50.1549 64.3265 47.7709C64.3265 45.3869 62.1239 43.4543 59.4069 43.4543C56.6899 43.4543 54.4873 45.3869 54.4873 47.7709C54.4873 50.1549 56.6899 52.0874 59.4069 52.0874Z" fill="white"/>
<path d="M80.0373 52.0874C82.7543 52.0874 84.9569 50.1549 84.9569 47.7709C84.9569 45.3869 82.7543 43.4543 80.0373 43.4543C77.3203 43.4543 75.1177 45.3869 75.1177 47.7709C75.1177 50.1549 77.3203 52.0874 80.0373 52.0874Z" fill="white"/>
<defs>
<linearGradient id="paint0_linear" x1="176.087" y1="-203.878" x2="74.9104" y2="149.84" gradientUnits="userSpaceOnUse">
<stop stop-color="#5498FF"/>
<stop offset="0.515625" stop-color="#428EFF"/>
<stop offset="1" stop-color="#297FFF"/>
</linearGradient>
<linearGradient id="paint1_linear" x1="133.413" y1="-58.876" x2="111.963" y2="89.5841" gradientUnits="userSpaceOnUse">
<stop stop-color="#5498FF"/>
<stop offset="0.515625" stop-color="#428EFF"/>
<stop offset="1" stop-color="#297FFF"/>
</linearGradient>
<linearGradient id="paint2_linear" x1="38.0034" y1="44.8459" x2="25.8409" y2="83.8857" gradientUnits="userSpaceOnUse">
<stop stop-color="#5498FF"/>
<stop offset="0.515625" stop-color="#428EFF"/>
<stop offset="1" stop-color="#297FFF"/>
</linearGradient>
</defs>
</svg>
